# xmcd
#
# Track frame offsets: 
#        150
#        18698
#        35001
#        53874
#        71654
#        94634
#        126731
#        140639
#        153792
#        178064
#
# Disc length: 2571 seconds
#
# Revision: 0
# Processed by: cddbd v1.5.2PL0 Copyright (c) Steve Scherf et al.
# Submitted via: ExactAudioCopy v0.95b4
#
DISCID=920a090a
DTITLE=Van Morrison - A Sense Of Wonder
DYEAR=1984
DGENRE=Blues
TTITLE0=Tore Down A La Rimbaud
TTITLE1=Ancient Of Days
TTITLE2=Evening Meditation
TTITLE3=The Masters's  Eyes
TTITLE4=What Would I Do
TTITLE5=A Sense Of Wonder
TTITLE6=Boffyflow And Spike
TTITLE7=If I Only Knew
TTITLE8=Let The Slave
TTITLE9=A New Kind Of Man
EXTD=
EXTT0=
EXTT1=
EXTT2=
EXTT3=
EXTT4=
EXTT5=
EXTT6=
EXTT7=
EXTT8=
EXTT9=
PLAYORDER=
